name analog
datacolumns 19
datarows 42
range 0.3565 0.377
endheader
time	ground_force_vx	ground_force_vy	ground_force_vz	ground_force_px	ground_force_py	ground_force_pz	l_ground_force_vx	l_ground_force_vy	l_ground_force_vz	l_ground_force_px	l_ground_force_py	l_ground_force_pz	ground_torque_x	ground_torque_y	ground_torque_z	l_ground_torque_x	l_ground_torque_y	l_ground_torque_z
0.3565	-0.0	-0.0	-0.0	-8.360533714294434	3.1293280124664307	-347.1759033203125	6.516468048095703	-4.496890068054199	-367.65667724609375	-0.0	-0.0	-0.0	-0.0	-0.0	-0.0	113669.15625	11247.1416015625	-4281.69921875
0.357	-0.0	-0.0	-0.0	-8.80671501159668	3.136882066726685	-346.3392028808594	6.531655788421631	-4.254591464996338	-368.5445251464844	-0.0	-0.0	-0.0	-0.0	-0.0	-0.0	113590.4140625	11306.3984375	-4343.4892578125
0.3575	-0.0	-0.0	-0.0	-8.77410888671875	3.508857011795044	-347.4667358398437	6.209754943847656	-4.214410305023193	-368.00579833984375	-0.0	-0.0	-0.0	-0.0	-0.0	-0.0	113527.5703125	11310.0126953125	-4392.072265625
0.358	-0.0	-0.0	-0.0	-9.002314567565918	3.670226812362671	-348.0431213378906	5.791148662567139	-4.272007942199707	-368.2262268066406	-0.0	-0.0	-0.0	-0.0	-0.0	-0.0	113513.703125	11424.6650390625	-4427.2919921875
0.3585	-0.0	-0.0	-0.0	-9.010261535644531	3.410928249359131	-348.81268310546875	5.831496238708496	-4.254982948303223	-368.32421875	-0.0	-0.0	-0.0	-0.0	-0.0	-0.0	113644.828125	11400.326171875	-4473.59375
0.359	-0.0	-0.0	-0.0	-9.496881484985352	3.2248315811157227	-347.625	5.782967567443848	-4.166814804077148	-369.2433471679688	-0.0	-0.0	-0.0	-0.0	-0.0	-0.0	113551.0625	11487.6162109375	-4443.916015625
0.3595	-0.0	-0.0	-0.0	-9.123693466186523	3.273625135421753	-347.1122741699219	5.863448619842529	-4.191317558288574	-369.5926513671875	-0.0	-0.0	-0.0	-0.0	-0.0	-0.0	113893.8828125	11476.04296875	-4478.826171875
0.36	-0.0	-0.0	-0.0	-9.39940071105957	3.2896270751953125	-346.9180908203125	5.411357879638672	-4.143143177032471	-369.33935546875	-0.0	-0.0	-0.0	-0.0	-0.0	-0.0	114203.3359375	11583.1181640625	-4484.60888671875
0.3605	-0.0	-0.0	-0.0	-9.456314086914062	2.7547669410705566	-348.26824951171875	5.3629584312438965	-4.215282440185547	-370.0689086914063	-0.0	-0.0	-0.0	-0.0	-0.0	-0.0	114297.9140625	11379.79296875	-4473.82177734375
0.361	-0.0	-0.0	-0.0	-8.88062572479248	2.7212767601013184	-349.3888244628906	5.621441841125488	-4.09476375579834	-370.7990112304688	-0.0	-0.0	-0.0	-0.0	-0.0	-0.0	114531.734375	11521.2744140625	-4462.84521484375
0.3615	-0.0	-0.0	-0.0	-9.205535888671877	2.438457489013672	-348.2020874023437	6.04056453704834	-4.31137228012085	-372.8615417480469	-0.0	-0.0	-0.0	-0.0	-0.0	-0.0	114509.0703125	11338.7158203125	-4362.91796875
0.362	-0.0	-0.0	-0.0	-9.471203804016112	2.535975217819214	-349.429443359375	6.242932796478272	-4.23944091796875	-371.8464965820313	-0.0	-0.0	-0.0	-0.0	-0.0	-0.0	114840.5859375	11323.302734375	-4403.13330078125
0.3625	-0.0	-0.0	-0.0	-9.82172393798828	2.518815755844116	-348.0997314453125	6.049077033996582	-4.216117858886719	-372.3207702636719	-0.0	-0.0	-0.0	-0.0	-0.0	-0.0	114965.4453125	11365.4365234375	-4430.1435546875
0.363	-0.0	-0.0	-0.0	-9.669317245483398	2.691187858581543	-348.6796264648437	5.854911804199219	-4.617963790893555	-372.6112976074219	-0.0	-0.0	-0.0	-0.0	-0.0	-0.0	115023.953125	11228.7353515625	-4454.3837890625
0.3635	-0.0	-0.0	-0.0	-9.6608247756958	2.4641191959381104	-347.70123291015625	5.70909595489502	-4.344687461853027	-373.59222412109375	-0.0	-0.0	-0.0	-0.0	-0.0	-0.0	115369.46875	11320.66015625	-4376.75244140625
0.364	-0.0	-0.0	-0.0	-9.80438232421875	2.6023144721984863	-348.42938232421875	5.780537128448486	-4.208088874816895	-373.08538818359375	-0.0	-0.0	-0.0	-0.0	-0.0	-0.0	115163.4375	11446.4755859375	-4503.0234375
0.3645	-0.0	-0.0	-0.0	-10.009281158447266	2.366377592086792	-346.8927917480469	5.482760429382324	-4.319146156311035	-372.5788269042969	-0.0	-0.0	-0.0	-0.0	-0.0	-0.0	115050.0	11264.6650390625	-4457.294921875
0.365	-0.0	-0.0	-0.0	-9.987217903137209	1.6934776306152344	-347.475830078125	5.505253314971924	-4.23944091796875	-373.5237121582031	-0.0	-0.0	-0.0	-0.0	-0.0	-0.0	115429.4609375	11245.55859375	-4374.0625
0.3655	-0.0	-0.0	-0.0	-9.72394561767578	1.8759284019470213	-348.97735595703125	5.659926414489746	-4.142375946044922	-372.3874816894531	-0.0	-0.0	-0.0	-0.0	-0.0	-0.0	115201.96875	11434.072265625	-4457.06005859375
0.366	-0.0	-0.0	-0.0	-9.933384895324709	1.6262876987457275	-348.1843566894531	5.717416286468506	-3.877333879470825	-373.8888549804688	-0.0	-0.0	-0.0	-0.0	-0.0	-0.0	115317.1015625	11135.1787109375	-4462.837890625
0.3665	-0.0	-0.0	-0.0	-9.317948341369627	1.457013487815857	-347.6371765136719	5.695292472839356	-3.886154174804688	-373.2781066894531	-0.0	-0.0	-0.0	-0.0	-0.0	-0.0	115379.90625	11235.609375	-4519.21435546875
0.367	-0.0	-0.0	-0.0	-9.483847618103027	1.2694666385650637	-348.1990966796875	5.881846904754639	-3.678758382797241	-372.9292907714844	-0.0	-0.0	-0.0	-0.0	-0.0	-0.0	115325.125	11033.453125	-4446.357421875
0.3675	-0.0	-0.0	-0.0	-10.000832557678224	1.1065540313720703	-348.7951965332031	5.930961608886719	-3.377845287322998	-372.6658935546875	-0.0	-0.0	-0.0	-0.0	-0.0	-0.0	115248.90625	11152.4208984375	-4478.93798828125
0.368	-0.0	-0.0	-0.0	-9.533493995666504	1.346254587173462	-350.8182067871094	6.0994553565979	-3.6698832511901855	-374.0130920410156	-0.0	-0.0	-0.0	-0.0	-0.0	-0.0	115486.875	10915.21875	-4327.5439453125
0.3685	-0.0	-0.0	-0.0	-9.653504371643066	1.4167102575302124	-349.33209228515625	6.7389912605285645	-3.788688898086548	-372.6170959472656	-0.0	-0.0	-0.0	-0.0	-0.0	-0.0	115483.2265625	11054.626953125	-4235.056640625
0.369	-0.0	-0.0	-0.0	-9.883441925048828	1.494286060333252	-349.4073486328125	6.466626167297363	-3.532867431640625	-375.1557312011719	-0.0	-0.0	-0.0	-0.0	-0.0	-0.0	115801.015625	10859.6220703125	-4217.88232421875
0.3695	-0.0	-0.0	-0.0	-9.606151580810549	1.187253475189209	-352.35357666015625	6.536619186401367	-3.414313077926636	-374.1804504394531	-0.0	-0.0	-0.0	-0.0	-0.0	-0.0	115647.8984375	11030.0380859375	-4152.302734375
0.37	-0.0	-0.0	-0.0	-9.902366638183594	1.3973400592803955	-351.6912841796875	6.823447227478027	-3.52351975440979	-373.7852783203125	-0.0	-0.0	-0.0	-0.0	-0.0	-0.0	115924.671875	10716.7177734375	-4063.1552734375
0.3705	-0.0	-0.0	-0.0	-9.139243125915527	1.0706610679626465	-351.0991516113281	7.038308143615723	-3.6211891174316406	-375.3380126953125	-0.0	-0.0	-0.0	-0.0	-0.0	-0.0	115967.7109375	10716.62890625	-3987.31005859375
0.371	-0.0	-0.0	-0.0	-9.535030364990234	0.9414848685264589	-353.02264404296875	7.353451728820801	-3.6021862030029297	-374.5214538574219	-0.0	-0.0	-0.0	-0.0	-0.0	-0.0	116186.5078125	10597.75390625	-3927.76611328125
0.3715	-0.0	-0.0	-0.0	-9.357305526733398	1.0108307600021362	-353.0227355957031	7.648316860198975	-3.483930349349976	-374.3283081054688	-0.0	-0.0	-0.0	-0.0	-0.0	-0.0	115805.9921875	10588.0859375	-3799.253662109375
0.372	-0.0	-0.0	-0.0	-9.238225936889648	0.8617041110992432	-353.65106201171875	7.904932022094727	-3.091259002685547	-374.7952270507813	-0.0	-0.0	-0.0	-0.0	-0.0	-0.0	115960.3125	10596.1025390625	-3778.9453125
0.3725	-0.0	-0.0	-0.0	-9.12914752960205	1.3371399641036987	-354.2008056640625	8.072681427001953	-3.32662296295166	-374.7164611816406	-0.0	-0.0	-0.0	-0.0	-0.0	-0.0	115885.0703125	10611.751953125	-3666.924560546875
0.373	-0.0	-0.0	-0.0	-8.653419494628906	1.4860635995864868	-354.7098388671875	8.42752456665039	-3.1107747554779053	-376.1520080566406	-0.0	-0.0	-0.0	-0.0	-0.0	-0.0	115661.53125	10502.5732421875	-3564.397216796875
0.3735	-0.0	-0.0	-0.0	-8.52464485168457	1.456307888031006	-354.2824401855469	8.31905746459961	-3.0324416160583496	-372.9713134765625	-0.0	-0.0	-0.0	-0.0	-0.0	-0.0	115559.5	10314.7861328125	-3501.816650390625
0.374	-0.0	-0.0	-0.0	-8.554048538208008	1.5355197191238403	-355.21856689453125	8.861123085021973	-3.101170778274536	-372.0406494140625	-0.0	-0.0	-0.0	-0.0	-0.0	-0.0	115232.4921875	10202.1923828125	-3415.688720703125
0.3745	-0.0	-0.0	-0.0	-8.17806625366211	1.6234283447265625	-354.6734313964844	8.86108112335205	-2.6788811683654785	-372.5447998046875	-0.0	-0.0	-0.0	-0.0	-0.0	-0.0	115224.3515625	10415.712890625	-3326.568359375
0.375	-0.0	-0.0	-0.0	-8.32741928100586	1.5940760374069214	-357.1463317871094	9.137210845947266	-2.442915916442871	-372.23529052734375	-0.0	-0.0	-0.0	-0.0	-0.0	-0.0	115005.59375	10353.5546875	-3273.682861328125
0.3755	-0.0	-0.0	-0.0	-8.734278678894043	1.3639932870864868	-355.1019287109375	9.27535343170166	-2.5903286933898926	-371.7665710449219	-0.0	-0.0	-0.0	-0.0	-0.0	-0.0	114970.0546875	10115.1474609375	-3227.441650390625
0.376	-0.0	-0.0	-0.0	-8.057936668395996	1.5627450942993164	-356.5557556152344	9.561917304992676	-2.355762481689453	-370.9936828613281	-0.0	-0.0	-0.0	-0.0	-0.0	-0.0	114927.4453125	10084.966796875	-3187.800048828125
0.3765	-0.0	-0.0	-0.0	-8.207366943359375	1.798391342163086	-356.5871887207031	9.580764770507812	-1.7645349502563477	-371.76556396484375	-0.0	-0.0	-0.0	-0.0	-0.0	-0.0	114746.7421875	10002.1650390625	-3121.4716796875
0.377	-0.0	-0.0	-0.0	-8.275446891784668	1.8113396167755127	-355.7242431640625	9.98514175415039	-2.03139877319336	-371.7330627441406	-0.0	-0.0	-0.0	-0.0	-0.0	-0.0	114710.7109375	10019.0771484375	-3200.594482421875
